<svg width="249" height="117" viewBox="0 0 249 117" fill="none" xmlns="http://www.w3.org/2000/svg">
<path d="M83.0403 51.6748C82.183 51.6748 81.4503 51.5346 80.8268 51.2698C80.2032 51.0051 79.72 50.6157 79.3614 50.1173C79.0185 49.6189 78.8158 49.0271 78.7847 48.3418H80.515C80.5618 48.7467 80.6865 49.0894 80.9203 49.3541C81.1541 49.6345 81.4503 49.837 81.8244 49.9616C82.1985 50.1017 82.5883 50.164 83.0247 50.164C83.508 50.164 83.9289 50.0862 84.303 49.9304C84.6927 49.7747 84.9889 49.5722 85.1915 49.2918C85.4098 49.0115 85.5189 48.7 85.5189 48.3418C85.5189 47.9991 85.4254 47.7344 85.2383 47.5163C85.0512 47.3138 84.8018 47.1425 84.4745 47.0023C84.1471 46.8622 83.7886 46.7376 83.3677 46.6285L82.0427 46.2703C81.1229 46.0211 80.3903 45.6473 79.8759 45.1645C79.3459 44.6661 79.0964 44.0431 79.0964 43.2644C79.0964 42.6103 79.2679 42.034 79.6264 41.5512C79.9694 41.0683 80.4526 40.679 81.0606 40.4142C81.6685 40.1339 82.3544 40.0093 83.1183 40.0093C83.8821 40.0093 84.568 40.1339 85.1604 40.4142C85.7527 40.679 86.2204 41.0528 86.5477 41.52C86.8907 42.0028 87.0777 42.5324 87.0933 43.1398H85.3942C85.3318 42.6258 85.098 42.2209 84.6771 41.9405C84.2562 41.6446 83.7106 41.5044 83.0715 41.5044C82.6194 41.5044 82.2141 41.5823 81.8868 41.7225C81.5438 41.8627 81.2788 42.0651 81.1074 42.3143C80.9203 42.5635 80.8268 42.8439 80.8268 43.1709C80.8268 43.5292 80.9359 43.8095 81.1541 44.0431C81.3724 44.2612 81.6374 44.4325 81.9647 44.5571C82.2765 44.6973 82.5883 44.7907 82.8688 44.8686L83.9756 45.1645C84.3342 45.258 84.7083 45.367 85.0824 45.5227C85.4721 45.6785 85.8151 45.881 86.1424 46.1302C86.4698 46.3794 86.7348 46.6753 86.9374 47.0491C87.1401 47.4073 87.2336 47.8434 87.2336 48.3573C87.2336 48.9959 87.0777 49.5722 86.7504 50.0706C86.4074 50.569 85.9398 50.9583 85.3162 51.2543C84.6771 51.5346 83.9289 51.6748 83.0403 51.6748Z" fill="white"/>
<path d="M88.3578 51.4879L92.3952 40.1494H94.5308L98.6306 51.4879H96.76L94.5464 45.1801C94.3749 44.6661 94.1879 44.0743 93.9852 43.3734C93.7826 42.6725 93.5332 41.8471 93.2682 40.8814H93.6267C93.3617 41.8626 93.1279 42.7037 92.9252 43.4045C92.7226 44.1054 92.5355 44.6973 92.3796 45.1801L90.2284 51.4879H88.3578ZM90.5402 48.4975V47.049H96.4482V48.4975H90.5402Z" fill="white"/>
<path d="M100.28 51.4879V40.1494H102.011V49.9927H107.139V51.4879H100.28Z" fill="white"/>
<path d="M111.218 51.4879L107.118 40.1494H108.989L111.202 46.4572C111.358 46.9556 111.545 47.5474 111.763 48.2483C111.966 48.9492 112.2 49.7902 112.465 50.7403H112.122C112.387 49.7591 112.621 48.9336 112.823 48.2327C113.026 47.5319 113.213 46.9556 113.369 46.4572L115.505 40.1494H117.391L113.338 51.4879H111.218Z" fill="white"/>
<path d="M117.049 51.4879L121.086 40.1494H123.222L127.322 51.4879H125.451L123.237 45.1801C123.066 44.6661 122.879 44.0743 122.676 43.3734C122.473 42.6725 122.224 41.8471 121.959 40.8814H122.318C122.053 41.8626 121.819 42.7037 121.616 43.4045C121.413 44.1054 121.226 44.6973 121.071 45.1801L118.919 51.4879H117.049ZM119.231 48.4975V47.049H125.139V48.4975H119.231Z" fill="white"/>
<path d="M127.047 41.6446V40.1494H135.855V41.6446H132.332V51.4879H130.586V41.6446H127.047Z" fill="white"/>
<path d="M142.053 51.6436C141.071 51.6436 140.198 51.41 139.419 50.9428C138.655 50.4755 138.031 49.8058 137.595 48.9492C137.143 48.077 136.925 47.0335 136.925 45.8342C136.925 44.6194 137.143 43.5759 137.595 42.7037C138.031 41.8315 138.655 41.1774 139.419 40.7101C140.198 40.2429 141.071 40.0093 142.053 40.0093C143.035 40.0093 143.908 40.2429 144.672 40.7101C145.436 41.1774 146.044 41.8315 146.496 42.7037C146.932 43.5759 147.166 44.6194 147.166 45.8342C147.166 47.0335 146.932 48.077 146.496 48.9492C146.044 49.8058 145.436 50.4755 144.672 50.9428C143.908 51.41 143.035 51.6436 142.053 51.6436ZM142.053 50.055C142.692 50.055 143.269 49.8993 143.783 49.5722C144.298 49.2451 144.688 48.7779 144.984 48.1393C145.28 47.5163 145.436 46.7376 145.436 45.8342C145.436 44.9153 145.28 44.1366 144.984 43.498C144.688 42.875 144.298 42.3922 143.783 42.0651C143.269 41.7381 142.692 41.5823 142.053 41.5823C141.398 41.5823 140.822 41.7536 140.307 42.0807C139.793 42.3922 139.388 42.875 139.091 43.5136C138.795 44.1366 138.655 44.9153 138.655 45.8342C138.655 46.7376 138.795 47.5163 139.091 48.1393C139.388 48.7623 139.793 49.2451 140.307 49.5722C140.822 49.8993 141.398 50.055 142.053 50.055Z" fill="white"/>
<path d="M149.28 51.4879V40.1494H153.333C154.205 40.1494 154.938 40.3052 155.515 40.6167C156.107 40.9126 156.544 41.3331 156.824 41.8626C157.121 42.4078 157.261 43.0152 157.261 43.716C157.261 44.4169 157.121 45.0243 156.824 45.5539C156.528 46.0834 156.092 46.4884 155.515 46.7687C154.938 47.0646 154.205 47.2048 153.317 47.2048H150.262V45.7252H153.145C153.707 45.7252 154.159 45.6473 154.502 45.4916C154.845 45.3202 155.094 45.1022 155.266 44.7907C155.421 44.4948 155.499 44.1366 155.499 43.716C155.499 43.2955 155.421 42.9217 155.266 42.6102C155.094 42.2987 154.845 42.0651 154.502 41.8938C154.159 41.7225 153.707 41.6446 153.145 41.6446H151.01V51.4879H149.28ZM155.718 51.4879L152.974 46.3638H154.891L157.697 51.4879H155.718Z" fill="white"/>
<path d="M159.38 51.4879V40.1494H166.504V41.6446H161.11V45.0243H166.13V46.5039H161.11V49.9927H166.566V51.4879H159.38Z" fill="white"/>
<path d="M74.6494 40.5V76.1865H40.5V40.5H74.6494Z" stroke="white"/>
<path d="M85.3809 76.5989H80.0777V73.7436H85.2041C86.8245 73.7436 88.1797 73.4198 89.2404 72.831C90.3305 72.2129 91.1259 71.3298 91.6562 70.1524C92.1866 68.9749 92.4812 67.562 92.4812 65.8547C92.4812 64.1768 92.1866 62.7639 91.6562 61.6159C91.1259 60.4385 90.3305 59.5554 89.2993 58.9667C88.2387 58.3485 86.9423 58.0542 85.3809 58.0542H79.9599V55.1694H85.5871C87.7084 55.1694 89.5055 55.611 91.0081 56.4646C92.5106 57.3182 93.6597 58.5546 94.4846 60.1441C95.2801 61.7337 95.6925 63.647 95.6925 65.8547C95.6925 68.0918 95.2801 70.0052 94.4846 71.6242C93.6597 73.2137 92.4812 74.45 90.9492 75.3037C89.4171 76.1573 87.561 76.5989 85.3809 76.5989ZM81.6981 55.1694V76.5989H78.4279V55.1694H81.6981Z" fill="white"/>
<path d="M99.6951 76.5989V55.1694H113.159V57.9953H102.965V64.3829H112.452V67.1793H102.965V73.773H113.277V76.5989H99.6951Z" fill="white"/>
<path d="M122.666 76.5989V55.1694H130.326C131.976 55.1694 133.36 55.4638 134.45 56.0525C135.57 56.6118 136.395 57.4066 136.925 58.4074C137.485 59.4376 137.75 60.5856 137.75 61.9103C137.75 63.2349 137.485 64.3829 136.925 65.3837C136.365 66.3846 135.54 67.1499 134.45 67.6797C133.36 68.239 131.976 68.5039 130.296 68.5039H124.522V65.7075H129.972C131.033 65.7075 131.887 65.5603 132.535 65.266C133.184 64.9422 133.655 64.5301 133.979 63.9414C134.274 63.3821 134.421 62.705 134.421 61.9103C134.421 61.1155 134.274 60.409 133.979 59.8203C133.655 59.2316 133.184 58.7901 132.535 58.4663C131.887 58.1425 131.033 57.9953 129.972 57.9953H125.936V76.5989H122.666ZM134.833 76.5989L129.648 66.9144H133.272L138.575 76.5989H134.833Z" fill="white"/>
<path d="M150.682 76.8932C148.826 76.8932 147.176 76.4517 145.703 75.5686C144.26 74.6855 143.081 73.4197 142.256 71.8008C141.402 70.1523 140.989 68.1801 140.989 65.9136C140.989 63.6175 141.402 61.6453 142.256 59.9969C143.081 58.3485 144.26 57.1122 145.703 56.2291C147.176 55.346 148.826 54.9045 150.682 54.9045C152.538 54.9045 154.188 55.346 155.632 56.2291C157.076 57.1122 158.225 58.3485 159.079 59.9969C159.904 61.6453 160.346 63.6175 160.346 65.9136C160.346 68.1801 159.904 70.1523 159.079 71.8008C158.225 73.4197 157.076 74.6855 155.632 75.5686C154.188 76.4517 152.538 76.8932 150.682 76.8932ZM150.682 73.8907C151.89 73.8907 152.98 73.5964 153.953 72.9782C154.925 72.36 155.661 71.477 156.221 70.2701C156.781 69.0926 157.076 67.6208 157.076 65.9136C157.076 64.1768 156.781 62.705 156.221 61.4981C155.661 60.3207 154.925 59.4082 153.953 58.79C152.98 58.1719 151.89 57.8775 150.682 57.8775C149.445 57.8775 148.355 58.2013 147.383 58.8195C146.41 59.4082 145.644 60.3207 145.085 61.5276C144.525 62.705 144.26 64.1768 144.26 65.9136C144.26 67.6208 144.525 69.0926 145.085 70.2701C145.644 71.4475 146.41 72.36 147.383 72.9782C148.355 73.5964 149.445 73.8907 150.682 73.8907Z" fill="white"/>
<path d="M164.34 76.5989V55.1694H169.172L173.827 67.4737C173.974 67.8269 174.122 68.2979 174.298 68.8572C174.446 69.4165 174.623 70.0052 174.799 70.6822C175.006 71.3298 175.182 71.948 175.33 72.5956C175.506 73.2137 175.654 73.8024 175.772 74.3028H175.064C175.212 73.8319 175.359 73.2726 175.506 72.6544C175.683 72.0068 175.86 71.3887 176.037 70.7116C176.213 70.0641 176.39 69.4459 176.567 68.8866C176.714 68.2979 176.891 67.8269 177.009 67.4737L181.634 55.1694H186.466V76.5989H183.225V65.0894C183.225 64.6184 183.225 64.0885 183.225 63.4998C183.225 62.8817 183.255 62.2341 183.255 61.557C183.284 60.8506 183.284 60.1735 183.314 59.4671C183.343 58.7606 183.343 58.0836 183.343 57.436H183.608C183.402 58.1425 183.196 58.8784 182.96 59.6143C182.754 60.3502 182.518 61.0566 182.312 61.7631C182.076 62.4401 181.87 63.0877 181.693 63.647C181.487 64.2357 181.31 64.7067 181.193 65.0894L176.803 76.5989H173.974L169.555 65.0894C169.408 64.7067 169.231 64.2357 169.054 63.6764C168.877 63.1171 168.671 62.499 168.436 61.822C168.229 61.1449 167.994 60.409 167.758 59.6731C167.552 58.9372 167.316 58.2013 167.08 57.436H167.375C167.375 58.0247 167.404 58.6723 167.404 59.3493C167.434 60.0558 167.434 60.7328 167.463 61.4393C167.463 62.1458 167.493 62.7934 167.493 63.4115C167.522 64.0591 167.522 64.6184 167.522 65.0894V76.5989H164.34Z" fill="white"/>
<path d="M189.584 76.5989L197.214 55.1694H201.251L208.999 76.5989H205.464L201.28 64.6773C200.956 63.7059 200.602 62.5873 200.219 61.2627C199.836 59.9381 199.365 58.3779 198.864 56.5529H199.542C199.041 58.4074 198.599 59.9969 198.216 61.3216C197.833 62.6462 197.48 63.7647 197.185 64.6773L193.119 76.5989H189.584ZM193.708 70.9471V68.2096H204.874V70.9471H193.708Z" fill="white"/>
<path d="M45.2378 60.4659V56.24L69.9368 44.2926V50.0837L51.765 58.2747L51.9217 57.9617V58.7442L51.765 58.4312L69.9368 66.6744V72.4133L45.2378 60.4659Z" fill="white"/>
<rect x="40" y="4" width="66.2344" height="30" rx="3" fill="white"/>
<rect x="40.5" y="4.5" width="65.2344" height="29" rx="2.5" stroke="black" stroke-opacity="0.2"/>
<path d="M51.3438 16C51.2969 15.6042 51.1068 15.2969 50.7734 15.0781C50.4401 14.8594 50.0313 14.75 49.5469 14.75C49.1927 14.75 48.8828 14.8073 48.6172 14.9219C48.3542 15.0365 48.1484 15.194 48 15.3945C47.8542 15.5951 47.7813 15.8229 47.7813 16.0781C47.7813 16.2917 47.832 16.4753 47.9336 16.6289C48.0378 16.7799 48.1706 16.9062 48.332 17.0078C48.4935 17.1068 48.6628 17.1888 48.8398 17.2539C49.0169 17.3164 49.1797 17.3672 49.3281 17.4062L50.1406 17.625C50.349 17.6797 50.5807 17.7552 50.8359 17.8516C51.0938 17.9479 51.3398 18.0794 51.5742 18.2461C51.8112 18.4102 52.0065 18.6211 52.1602 18.8789C52.3138 19.1367 52.3906 19.4531 52.3906 19.8281C52.3906 20.2604 52.2773 20.651 52.0508 21C51.8268 21.349 51.4987 21.6263 51.0664 21.832C50.6367 22.0378 50.1146 22.1406 49.5 22.1406C48.9271 22.1406 48.431 22.0482 48.0117 21.8633C47.5951 21.6784 47.2669 21.4206 47.0273 21.0898C46.7904 20.7591 46.6563 20.375 46.625 19.9375H47.625C47.651 20.2396 47.7526 20.4896 47.9297 20.6875C48.1094 20.8828 48.3359 21.0286 48.6094 21.125C48.8854 21.2187 49.1823 21.2656 49.5 21.2656C49.8698 21.2656 50.2018 21.2057 50.4961 21.0859C50.7904 20.9635 51.0234 20.7943 51.1953 20.5781C51.3672 20.3594 51.4531 20.1042 51.4531 19.8125C51.4531 19.5469 51.3789 19.3307 51.2305 19.1641C51.082 18.9974 50.8867 18.862 50.6445 18.7578C50.4023 18.6536 50.1406 18.5625 49.8594 18.4844L48.875 18.2031C48.25 18.0234 47.7552 17.7669 47.3906 17.4336C47.026 17.1003 46.8438 16.6641 46.8438 16.125C46.8438 15.6771 46.9648 15.2865 47.207 14.9531C47.4518 14.6172 47.7799 14.3568 48.1914 14.1719C48.6055 13.9844 49.0677 13.8906 49.5781 13.8906C50.0938 13.8906 50.5521 13.9831 50.9531 14.168C51.3542 14.3503 51.6719 14.6003 51.9062 14.918C52.1432 15.2357 52.2682 15.5964 52.2813 16H51.3438ZM56.374 22.125C55.7959 22.125 55.2972 21.9974 54.8779 21.7422C54.4613 21.4844 54.1396 21.125 53.9131 20.6641C53.6891 20.2005 53.5771 19.6615 53.5771 19.0469C53.5771 18.4323 53.6891 17.8906 53.9131 17.4219C54.1396 16.9505 54.4548 16.5833 54.8584 16.3203C55.2646 16.0547 55.7386 15.9219 56.2803 15.9219C56.5928 15.9219 56.9014 15.974 57.2061 16.0781C57.5107 16.1823 57.7881 16.3516 58.0381 16.5859C58.2881 16.8177 58.4873 17.125 58.6357 17.5078C58.7842 17.8906 58.8584 18.362 58.8584 18.9219V19.3125H54.2334V18.5156H57.9209C57.9209 18.1771 57.8532 17.875 57.7178 17.6094C57.585 17.3437 57.3949 17.1341 57.1475 16.9805C56.9027 16.8268 56.6136 16.75 56.2803 16.75C55.9131 16.75 55.5954 16.8411 55.3271 17.0234C55.0615 17.2031 54.8571 17.4375 54.7139 17.7266C54.5706 18.0156 54.499 18.3255 54.499 18.6562V19.1875C54.499 19.6406 54.5771 20.0247 54.7334 20.3398C54.8923 20.6523 55.1123 20.8906 55.3936 21.0547C55.6748 21.2161 56.0016 21.2969 56.374 21.2969C56.6162 21.2969 56.835 21.263 57.0303 21.1953C57.2282 21.125 57.3988 21.0208 57.542 20.8828C57.6852 20.7422 57.7959 20.5677 57.874 20.3594L58.7646 20.6094C58.6709 20.9115 58.5133 21.1771 58.292 21.4062C58.0706 21.6328 57.7972 21.8099 57.4717 21.9375C57.1462 22.0625 56.7803 22.125 56.374 22.125ZM62.6982 22.125C62.1357 22.125 61.6514 21.9922 61.2451 21.7266C60.8389 21.4609 60.5264 21.0951 60.3076 20.6289C60.0889 20.1628 59.9795 19.6302 59.9795 19.0312C59.9795 18.4219 60.0915 17.8841 60.3154 17.418C60.542 16.9492 60.8571 16.5833 61.2607 16.3203C61.667 16.0547 62.141 15.9219 62.6826 15.9219C63.1045 15.9219 63.4847 16 63.8232 16.1562C64.1618 16.3125 64.4391 16.5312 64.6553 16.8125C64.8714 17.0937 65.0055 17.4219 65.0576 17.7969H64.1357C64.0654 17.5234 63.9092 17.2812 63.667 17.0703C63.4274 16.8568 63.1045 16.75 62.6982 16.75C62.3389 16.75 62.0238 16.8437 61.7529 17.0312C61.4847 17.2161 61.2751 17.4779 61.124 17.8164C60.9756 18.1523 60.9014 18.5469 60.9014 19C60.9014 19.4635 60.9743 19.8672 61.1201 20.2109C61.2686 20.5547 61.4769 20.8216 61.7451 21.0117C62.016 21.2018 62.3337 21.2969 62.6982 21.2969C62.9378 21.2969 63.1553 21.2552 63.3506 21.1719C63.5459 21.0885 63.7113 20.9688 63.8467 20.8125C63.9821 20.6562 64.0785 20.4687 64.1357 20.25H65.0576C65.0055 20.6042 64.8766 20.9232 64.6709 21.207C64.4678 21.4883 64.1982 21.7122 63.8623 21.8789C63.529 22.043 63.141 22.125 62.6982 22.125ZM69.0146 16V16.7812H65.9053V16H69.0146ZM66.8115 14.5625H67.7334V20.2812C67.7334 20.5417 67.7712 20.737 67.8467 20.8672C67.9248 20.9948 68.0238 21.0807 68.1436 21.125C68.266 21.1667 68.3949 21.1875 68.5303 21.1875C68.6318 21.1875 68.7152 21.1823 68.7803 21.1719C68.8454 21.1589 68.8975 21.1484 68.9365 21.1406L69.124 21.9687C69.0615 21.9922 68.9743 22.0156 68.8623 22.0391C68.7503 22.0651 68.6084 22.0781 68.4365 22.0781C68.1761 22.0781 67.9209 22.0221 67.6709 21.9102C67.4235 21.7982 67.2178 21.6276 67.0537 21.3984C66.8923 21.1693 66.8115 20.8802 66.8115 20.5312V14.5625ZM70.4014 22V16H71.3232V22H70.4014ZM70.8701 15C70.6904 15 70.5355 14.9388 70.4053 14.8164C70.2777 14.694 70.2139 14.5469 70.2139 14.375C70.2139 14.2031 70.2777 14.056 70.4053 13.9336C70.5355 13.8112 70.6904 13.75 70.8701 13.75C71.0498 13.75 71.2035 13.8112 71.3311 13.9336C71.4613 14.056 71.5264 14.2031 71.5264 14.375C71.5264 14.5469 71.4613 14.694 71.3311 14.8164C71.2035 14.9388 71.0498 15 70.8701 15ZM75.4492 22.125C74.9076 22.125 74.4323 21.9961 74.0234 21.7383C73.6172 21.4805 73.2995 21.1198 73.0703 20.6562C72.8438 20.1927 72.7305 19.651 72.7305 19.0312C72.7305 18.4062 72.8438 17.8607 73.0703 17.3945C73.2995 16.9284 73.6172 16.5664 74.0234 16.3086C74.4323 16.0508 74.9076 15.9219 75.4492 15.9219C75.9909 15.9219 76.4648 16.0508 76.8711 16.3086C77.2799 16.5664 77.5977 16.9284 77.8242 17.3945C78.0534 17.8607 78.168 18.4062 78.168 19.0312C78.168 19.651 78.0534 20.1927 77.8242 20.6562C77.5977 21.1198 77.2799 21.4805 76.8711 21.7383C76.4648 21.9961 75.9909 22.125 75.4492 22.125ZM75.4492 21.2969C75.8607 21.2969 76.1992 21.1914 76.4648 20.9805C76.7305 20.7695 76.9271 20.4922 77.0547 20.1484C77.1823 19.8047 77.2461 19.4323 77.2461 19.0312C77.2461 18.6302 77.1823 18.2565 77.0547 17.9102C76.9271 17.5638 76.7305 17.2839 76.4648 17.0703C76.1992 16.8568 75.8607 16.75 75.4492 16.75C75.0378 16.75 74.6992 16.8568 74.4336 17.0703C74.168 17.2839 73.9714 17.5638 73.8438 17.9102C73.7161 18.2565 73.6523 18.6302 73.6523 19.0312C73.6523 19.4323 73.7161 19.8047 73.8438 20.1484C73.9714 20.4922 74.168 20.7695 74.4336 20.9805C74.6992 21.1914 75.0378 21.2969 75.4492 21.2969ZM80.4971 18.3906V22H79.5752V16H80.4658V16.9375H80.5439C80.6846 16.6328 80.8981 16.388 81.1846 16.2031C81.471 16.0156 81.8408 15.9219 82.2939 15.9219C82.7002 15.9219 83.0557 16.0052 83.3604 16.1719C83.665 16.3359 83.902 16.5859 84.0713 16.9219C84.2406 17.2552 84.3252 17.6771 84.3252 18.1875V22H83.4033V18.25C83.4033 17.7786 83.2809 17.4115 83.0361 17.1484C82.7913 16.8828 82.4554 16.75 82.0283 16.75C81.734 16.75 81.471 16.8138 81.2393 16.9414C81.0101 17.069 80.8291 17.2552 80.6963 17.5C80.5635 17.7448 80.4971 18.0417 80.4971 18.3906ZM91.9004 14V22H90.9316V15.0156H90.8848L88.9316 16.3125V15.3281L90.9316 14H91.9004ZM96.8574 22.1094C96.5293 22.1042 96.2012 22.0417 95.873 21.9219C95.5449 21.8021 95.2454 21.6003 94.9746 21.3164C94.7038 21.0299 94.4863 20.6432 94.3223 20.1562C94.1582 19.6667 94.0762 19.0521 94.0762 18.3125C94.0762 17.6042 94.1426 16.9766 94.2754 16.4297C94.4082 15.8802 94.6009 15.418 94.8535 15.043C95.1061 14.6654 95.4108 14.3789 95.7676 14.1836C96.127 13.9883 96.5319 13.8906 96.9824 13.8906C97.4303 13.8906 97.8288 13.9805 98.1777 14.1602C98.5293 14.3372 98.8158 14.5846 99.0371 14.9023C99.2585 15.2201 99.4017 15.5859 99.4668 16H98.5137C98.4251 15.6406 98.2533 15.3424 97.998 15.1055C97.7428 14.8685 97.4043 14.75 96.9824 14.75C96.3626 14.75 95.8743 15.0195 95.5176 15.5586C95.1634 16.0977 94.985 16.8542 94.9824 17.8281H95.0449C95.1908 17.6068 95.3639 17.418 95.5645 17.2617C95.7676 17.1029 95.9915 16.9805 96.2363 16.8945C96.4811 16.8086 96.7402 16.7656 97.0137 16.7656C97.472 16.7656 97.8913 16.8802 98.2715 17.1094C98.6517 17.3359 98.9564 17.6497 99.1855 18.0508C99.4147 18.4492 99.5293 18.9062 99.5293 19.4219C99.5293 19.9167 99.4186 20.3698 99.1973 20.7812C98.9759 21.1901 98.6647 21.5156 98.2637 21.7578C97.8652 21.9974 97.3965 22.1146 96.8574 22.1094ZM96.8574 21.25C97.1855 21.25 97.4798 21.168 97.7402 21.0039C98.0033 20.8398 98.2103 20.6198 98.3613 20.3437C98.515 20.0677 98.5918 19.7604 98.5918 19.4219C98.5918 19.0911 98.5176 18.7904 98.3691 18.5195C98.2233 18.2461 98.0215 18.0286 97.7637 17.8672C97.5085 17.7057 97.2168 17.625 96.8887 17.625C96.6413 17.625 96.4108 17.6745 96.1973 17.7734C95.9837 17.8698 95.7962 18.0026 95.6348 18.1719C95.4759 18.3411 95.3509 18.5352 95.2598 18.7539C95.1686 18.9701 95.123 19.1979 95.123 19.4375C95.123 19.7552 95.1973 20.0521 95.3457 20.3281C95.4967 20.6042 95.7025 20.8268 95.9629 20.9961C96.2259 21.1654 96.5241 21.25 96.8574 21.25Z" fill="black"/>
</svg>
