<svg width="169" height="37" viewBox="0 0 169 37" fill="none" xmlns="http://www.w3.org/2000/svg">
<path d="M43.0403 11.6748C42.183 11.6748 41.4503 11.5346 40.8268 11.2698C40.2032 11.0051 39.72 10.6157 39.3614 10.1173C39.0185 9.61891 38.8158 9.02706 38.7847 8.34177H40.515C40.5618 8.74672 40.6865 9.08936 40.9203 9.35414C41.1541 9.63448 41.4503 9.83695 41.8244 9.96155C42.1985 10.1017 42.5883 10.164 43.0247 10.164C43.508 10.164 43.9289 10.0861 44.303 9.9304C44.6927 9.77465 44.9889 9.57218 45.1915 9.29184C45.4098 9.01149 45.5189 8.69999 45.5189 8.34177C45.5189 7.99913 45.4254 7.73436 45.2383 7.51631C45.0512 7.31384 44.8018 7.14252 44.4745 7.00234C44.1471 6.86217 43.7886 6.73757 43.3677 6.62855L42.0427 6.27033C41.1229 6.02113 40.3903 5.64734 39.8759 5.16452C39.3459 4.66612 39.0964 4.04313 39.0964 3.26439C39.0964 2.61025 39.2679 2.03398 39.6264 1.55117C39.9694 1.06835 40.4526 0.678977 41.0606 0.414206C41.6685 0.13386 42.3544 0.00926208 43.1183 0.00926208C43.8821 0.00926208 44.568 0.13386 45.1604 0.414206C45.7527 0.678977 46.2204 1.05277 46.5477 1.52002C46.8907 2.00284 47.0777 2.53238 47.0933 3.13979H45.3942C45.3318 2.62583 45.098 2.22088 44.6771 1.94054C44.2562 1.64462 43.7106 1.50444 43.0715 1.50444C42.6194 1.50444 42.2141 1.58232 41.8868 1.72249C41.5438 1.86266 41.2788 2.06513 41.1074 2.31433C40.9203 2.56353 40.8268 2.84387 40.8268 3.17094C40.8268 3.52916 40.9359 3.80951 41.1541 4.04313C41.3724 4.26118 41.6374 4.4325 41.9647 4.5571C42.2765 4.69727 42.5883 4.79072 42.8688 4.8686L43.9756 5.16452C44.3342 5.25797 44.7083 5.36699 45.0824 5.52274C45.4721 5.67849 45.8151 5.88096 46.1424 6.13015C46.4698 6.37935 46.7348 6.67527 46.9374 7.04907C47.1401 7.40729 47.2336 7.84338 47.2336 8.35735C47.2336 8.99592 47.0777 9.57218 46.7504 10.0706C46.4074 10.569 45.9398 10.9583 45.3162 11.2543C44.6771 11.5346 43.9289 11.6748 43.0403 11.6748Z" fill="white"/>
<path d="M48.3578 11.4879L52.3952 0.149414H54.5308L58.6306 11.4879H56.76L54.5464 5.18007C54.3749 4.6661 54.1879 4.07426 53.9852 3.37339C53.7826 2.67253 53.5332 1.84707 53.2682 0.881429H53.6267C53.3617 1.86264 53.1279 2.70368 52.9252 3.40455C52.7226 4.10541 52.5355 4.69725 52.3796 5.18007L50.2284 11.4879H48.3578ZM50.5402 8.4975V7.04905H56.4482V8.4975H50.5402Z" fill="white"/>
<path d="M60.2804 11.4879V0.149414H62.0107V9.99268H67.1393V11.4879H60.2804Z" fill="white"/>
<path d="M71.2177 11.4879L67.1179 0.149414H68.9885L71.2021 6.4572C71.358 6.9556 71.545 7.54744 71.7633 8.2483C71.9659 8.94917 72.1998 9.79021 72.4648 10.7403H72.1218C72.3868 9.75906 72.6206 8.9336 72.8233 8.23273C73.0259 7.53186 73.213 6.9556 73.3689 6.4572L75.5045 0.149414H77.3907L73.3377 11.4879H71.2177Z" fill="white"/>
<path d="M77.0487 11.4879L81.0861 0.149414H83.2217L87.3215 11.4879H85.4509L83.2373 5.18007C83.0659 4.6661 82.8788 4.07426 82.6761 3.37339C82.4735 2.67253 82.2241 1.84707 81.9591 0.881429H82.3176C82.0526 1.86264 81.8188 2.70368 81.6161 3.40455C81.4135 4.10541 81.2264 4.69725 81.0705 5.18007L78.9193 11.4879H77.0487ZM79.2311 8.4975V7.04905H85.1391V8.4975H79.2311Z" fill="white"/>
<path d="M87.0474 1.64459V0.149414H95.8548V1.64459H92.3319V11.4879H90.5859V1.64459H87.0474Z" fill="white"/>
<path d="M102.053 11.6436C101.071 11.6436 100.198 11.41 99.4187 10.9428C98.6549 10.4755 98.0313 9.8058 97.5949 8.94919C97.1428 8.077 96.9246 7.03349 96.9246 5.83423C96.9246 4.6194 97.1428 3.57589 97.5949 2.7037C98.0313 1.83151 98.6549 1.17737 99.4187 0.710128C100.198 0.242884 101.071 0.00926208 102.053 0.00926208C103.035 0.00926208 103.908 0.242884 104.672 0.710128C105.436 1.17737 106.044 1.83151 106.496 2.7037C106.932 3.57589 107.166 4.6194 107.166 5.83423C107.166 7.03349 106.932 8.077 106.496 8.94919C106.044 9.8058 105.436 10.4755 104.672 10.9428C103.908 11.41 103.035 11.6436 102.053 11.6436ZM102.053 10.055C102.692 10.055 103.269 9.89925 103.783 9.57218C104.298 9.24511 104.688 8.77787 104.984 8.1393C105.28 7.51631 105.436 6.73757 105.436 5.83423C105.436 4.91532 105.28 4.13658 104.984 3.49801C104.688 2.87502 104.298 2.3922 103.783 2.06513C103.269 1.73806 102.692 1.58232 102.053 1.58232C101.398 1.58232 100.822 1.75364 100.307 2.08071C99.7928 2.3922 99.3875 2.87502 99.0914 3.51359C98.7952 4.13658 98.6549 4.91532 98.6549 5.83423C98.6549 6.73757 98.7952 7.51631 99.0914 8.1393C99.3875 8.76229 99.7928 9.24511 100.307 9.57218C100.822 9.89925 101.398 10.055 102.053 10.055Z" fill="white"/>
<path d="M109.28 11.4879V0.149414H113.333C114.205 0.149414 114.938 0.305162 115.515 0.616657C116.107 0.912578 116.544 1.3331 116.824 1.86264C117.121 2.40776 117.261 3.01518 117.261 3.71604C117.261 4.41691 117.121 5.02432 116.824 5.55387C116.528 6.08341 116.092 6.48835 115.515 6.7687C114.938 7.06462 114.205 7.20479 113.317 7.20479H110.262V5.72519H113.145C113.707 5.72519 114.159 5.64732 114.502 5.49157C114.845 5.32024 115.094 5.1022 115.266 4.7907C115.421 4.49478 115.499 4.13656 115.499 3.71604C115.499 3.29552 115.421 2.92173 115.266 2.61023C115.094 2.29873 114.845 2.06511 114.502 1.89379C114.159 1.72247 113.707 1.64459 113.145 1.64459H111.01V11.4879H109.28ZM115.718 11.4879L112.974 6.36376H114.891L117.697 11.4879H115.718Z" fill="white"/>
<path d="M119.38 11.4879V0.149414H126.504V1.64459H121.11V5.02432H126.13V6.50393H121.11V9.99268H126.566V11.4879H119.38Z" fill="white"/>
<path d="M35.1495 0V36.6864H0V0H35.1495ZM1 35.6864H34.1495V0.999998H1V35.6864Z" fill="white"/>
<path d="M45.3809 36.5989H40.0777V33.7436H45.2041C46.8245 33.7436 48.1797 33.4198 49.2404 32.8311C50.3305 32.2129 51.1259 31.3298 51.6562 30.1524C52.1866 28.9749 52.4812 27.562 52.4812 25.8547C52.4812 24.1769 52.1866 22.7639 51.6562 21.6159C51.1259 20.4385 50.3305 19.5554 49.2993 18.9667C48.2387 18.3485 46.9423 18.0542 45.3809 18.0542H39.9599V15.1694H45.5871C47.7084 15.1694 49.5055 15.611 51.0081 16.4646C52.5106 17.3183 53.6597 18.5546 54.4846 20.1441C55.2801 21.7337 55.6925 23.647 55.6925 25.8547C55.6925 28.0919 55.2801 30.0052 54.4846 31.6242C53.6597 33.2137 52.4812 34.45 50.9492 35.3037C49.4171 36.1573 47.561 36.5989 45.3809 36.5989ZM41.6981 15.1694V36.5989H38.4279V15.1694H41.6981Z" fill="white"/>
<path d="M59.6951 36.5989V15.1694H73.1592V17.9953H62.9653V24.3829H72.4521V27.1793H62.9653V33.773H73.277V36.5989H59.6951Z" fill="white"/>
<path d="M82.6656 36.5989V15.1694H90.3257C91.9756 15.1694 93.3603 15.4638 94.4504 16.0525C95.57 16.6118 96.3949 17.4066 96.9252 18.4074C97.485 19.4377 97.7501 20.5857 97.7501 21.9103C97.7501 23.2349 97.485 24.3829 96.9252 25.3837C96.3654 26.3846 95.5405 27.1499 94.4504 27.6798C93.3603 28.239 91.9756 28.504 90.2963 28.504H84.5217V25.7075H89.9722C91.0328 25.7075 91.8872 25.5604 92.5354 25.266C93.1835 24.9422 93.6549 24.5301 93.979 23.9414C94.2736 23.3821 94.4209 22.7051 94.4209 21.9103C94.4209 21.1155 94.2736 20.409 93.979 19.8203C93.6549 19.2316 93.1835 18.7901 92.5354 18.4663C91.8872 18.1425 91.0328 17.9953 89.9722 17.9953H85.9359V36.5989H82.6656ZM94.8334 36.5989L89.6481 26.9144H93.2719L98.5751 36.5989H94.8334Z" fill="white"/>
<path d="M110.682 36.8932C108.826 36.8932 107.176 36.4517 105.703 35.5686C104.26 34.6855 103.081 33.4198 102.256 31.8008C101.402 30.1523 100.989 28.1801 100.989 25.9136C100.989 23.6175 101.402 21.6453 102.256 19.9969C103.081 18.3485 104.26 17.1122 105.703 16.2291C107.176 15.346 108.826 14.9045 110.682 14.9045C112.538 14.9045 114.188 15.346 115.632 16.2291C117.076 17.1122 118.225 18.3485 119.079 19.9969C119.904 21.6453 120.346 23.6175 120.346 25.9136C120.346 28.1801 119.904 30.1523 119.079 31.8008C118.225 33.4198 117.076 34.6855 115.632 35.5686C114.188 36.4517 112.538 36.8932 110.682 36.8932ZM110.682 33.8907C111.89 33.8907 112.98 33.5964 113.953 32.9782C114.925 32.3601 115.661 31.477 116.221 30.2701C116.781 29.0927 117.076 27.6209 117.076 25.9136C117.076 24.1768 116.781 22.705 116.221 21.4982C115.661 20.3207 114.925 19.4082 113.953 18.79C112.98 18.1719 111.89 17.8775 110.682 17.8775C109.445 17.8775 108.355 18.2013 107.383 18.8195C106.41 19.4082 105.644 20.3207 105.085 21.5276C104.525 22.705 104.26 24.1768 104.26 25.9136C104.26 27.6209 104.525 29.0927 105.085 30.2701C105.644 31.4475 106.41 32.3601 107.383 32.9782C108.355 33.5964 109.445 33.8907 110.682 33.8907Z" fill="white"/>
<path d="M124.34 36.5989V15.1694H129.172L133.827 27.4737C133.974 27.8269 134.122 28.2979 134.298 28.8572C134.446 29.4165 134.623 30.0052 134.799 30.6822C135.006 31.3298 135.182 31.948 135.33 32.5956C135.506 33.2137 135.654 33.8024 135.772 34.3029H135.064C135.212 33.8319 135.359 33.2726 135.506 32.6544C135.683 32.0069 135.86 31.3887 136.037 30.7117C136.213 30.0641 136.39 29.4459 136.567 28.8866C136.714 28.2979 136.891 27.8269 137.009 27.4737L141.634 15.1694H146.466V36.5989H143.225V25.0894C143.225 24.6184 143.225 24.0886 143.225 23.4998C143.225 22.8817 143.255 22.2341 143.255 21.5571C143.284 20.8506 143.284 20.1736 143.314 19.4671C143.343 18.7606 143.343 18.0836 143.343 17.436H143.608C143.402 18.1425 143.196 18.8784 142.96 19.6143C142.754 20.3502 142.518 21.0566 142.312 21.7631C142.076 22.4401 141.87 23.0877 141.693 23.647C141.487 24.2357 141.31 24.7067 141.193 25.0894L136.803 36.5989H133.974L129.555 25.0894C129.408 24.7067 129.231 24.2357 129.054 23.6764C128.877 23.1172 128.671 22.499 128.436 21.822C128.229 21.145 127.994 20.409 127.758 19.6731C127.552 18.9372 127.316 18.2013 127.08 17.436H127.375C127.375 18.0247 127.404 18.6723 127.404 19.3494C127.434 20.0558 127.434 20.7328 127.463 21.4393C127.463 22.1458 127.493 22.7934 127.493 23.4115C127.522 24.0591 127.522 24.6184 127.522 25.0894V36.5989H124.34Z" fill="white"/>
<path d="M149.584 36.5989L157.214 15.1694H161.251L168.999 36.5989H165.464L161.28 24.6773C160.956 23.7059 160.602 22.5873 160.219 21.2627C159.836 19.9381 159.365 18.378 158.864 16.5529H159.542C159.041 18.4074 158.599 19.9969 158.216 21.3216C157.833 22.6462 157.48 23.7648 157.185 24.6773L153.119 36.5989H149.584ZM153.708 30.9472V28.2096H164.874V30.9472H153.708Z" fill="white"/>
<path d="M5.23779 20.4659V16.24L29.9368 4.2926V10.0837L11.765 18.2747L11.9217 17.9617V18.7443L11.765 18.4312L29.9368 26.6744V32.4133L5.23779 20.4659Z" fill="white"/>
</svg>
